<svg id="Layer_1" data-name="Layer 1" xmlns="http://www.w3.org/2000/svg" xmlns:xlink="http://www.w3.org/1999/xlink" viewBox="0 0 336.02 67.42"><defs><style>.cls-1{fill:url(#Безымянный_градиент_33);}.cls-2{fill:url(#Безымянный_градиент_33-2);}.cls-3{fill:url(#Безымянный_градиент_33-3);}.cls-4{fill:url(#Безымянный_градиент_33-4);}.cls-5{fill:url(#Безымянный_градиент_33-5);}.cls-6{fill:url(#Безымянный_градиент_33-6);}.cls-7{fill:url(#Безымянный_градиент_33-7);}.cls-8{fill:url(#Безымянный_градиент_33-8);}.cls-9{fill:url(#Безымянный_градиент_33-9);}.cls-10{fill:url(#Безымянный_градиент_33-10);}.cls-11{fill:url(#Безымянный_градиент_33-11);}.cls-12{fill:url(#Безымянный_градиент_33-12);}.cls-13{fill:url(#Безымянный_градиент_33-13);}.cls-14{fill:url(#Безымянный_градиент_33-14);}.cls-15{fill:url(#Безымянный_градиент_33-15);}.cls-16{fill:url(#Безымянный_градиент_33-16);}</style><linearGradient id="Безымянный_градиент_33" x1="265.11" y1="53.36" x2="301.95" y2="53.36" gradientUnits="userSpaceOnUse"><stop offset="0" stop-color="#35a0ff"/><stop offset="1" stop-color="#390096"/></linearGradient><linearGradient id="Безымянный_градиент_33-2" x1="274.07" y1="53.36" x2="292.99" y2="53.36" xlink:href="#Безымянный_градиент_33"/><linearGradient id="Безымянный_градиент_33-3" x1="0" y1="54.08" x2="39.1" y2="54.08" xlink:href="#Безымянный_градиент_33"/><linearGradient id="Безымянный_градиент_33-4" x1="29.2" y1="54.12" x2="63.55" y2="54.12" xlink:href="#Безымянный_градиент_33"/><linearGradient id="Безымянный_градиент_33-5" x1="60.42" y1="54.2" x2="115.65" y2="54.2" xlink:href="#Безымянный_градиент_33"/><linearGradient id="Безымянный_градиент_33-6" x1="103.68" y1="54.16" x2="126.09" y2="54.16" xlink:href="#Безымянный_градиент_33"/><linearGradient id="Безымянный_градиент_33-7" x1="113.75" y1="54.12" x2="152.61" y2="54.12" xlink:href="#Безымянный_градиент_33"/><linearGradient id="Безымянный_градиент_33-8" x1="153.2" y1="54.2" x2="208.42" y2="54.2" xlink:href="#Безымянный_градиент_33"/><linearGradient id="Безымянный_градиент_33-9" x1="200.68" y1="54.08" x2="236.96" y2="54.08" xlink:href="#Безымянный_градиент_33"/><linearGradient id="Безымянный_градиент_33-10" x1="234.32" y1="54.04" x2="271.24" y2="54.04" xlink:href="#Безымянный_градиент_33"/><linearGradient id="Безымянный_градиент_33-11" x1="297.08" y1="54.08" x2="336.02" y2="54.08" xlink:href="#Безымянный_градиент_33"/><linearGradient id="Безымянный_градиент_33-12" x1="-25.47" y1="22.09" x2="29.21" y2="22.09" gradientTransform="matrix(-0.94, -0.34, 0.34, -0.94, 85.56, 40.99)" xlink:href="#Безымянный_градиент_33"/><linearGradient id="Безымянный_градиент_33-13" x1="196.59" y1="29.16" x2="221.16" y2="29.16" xlink:href="#Безымянный_градиент_33"/><linearGradient id="Безымянный_градиент_33-14" x1="89.49" y1="11.45" x2="189.96" y2="11.45" xlink:href="#Безымянный_градиент_33"/><linearGradient id="Безымянный_градиент_33-15" x1="89.49" y1="17.65" x2="324.54" y2="17.65" xlink:href="#Безымянный_градиент_33"/><linearGradient id="Безымянный_градиент_33-16" x1="120.58" y1="26.01" x2="190.49" y2="26.01" xlink:href="#Безымянный_градиент_33"/></defs><path class="cls-1" d="M298.94,53.64c0-.12,0-.24,0-.35l3-1a9.37,9.37,0,0,0-.9-3l-3.33-.09a10.25,10.25,0,0,0-.89-1.22l1.87-1.9a16.31,16.31,0,0,0-2.95-2.29l-2.95,1.07q-.8-.4-1.65-.75l.24-2.29a24,24,0,0,0-4.21-1L285.4,42.8c-.48,0-1-.07-1.46-.07h-.51L282,40.65a26.35,26.35,0,0,0-4.35.62l-.13,2.3c-.61.18-1.2.38-1.77.61L273,42.89a18.18,18.18,0,0,0-3.32,2l1.55,2a14.51,14.51,0,0,0-1.09,1.14l-3.32-.17a10.51,10.51,0,0,0-1.39,2.91l2.82,1.23a6.78,6.78,0,0,0-.11,1c0,.11,0,.23,0,.35l-3,1a9.63,9.63,0,0,0,.89,3l3.34.1a10,10,0,0,0,.89,1.22l-1.88,1.89a15.63,15.63,0,0,0,3,2.29l2.95-1.07a13.8,13.8,0,0,0,1.65.75l-.25,2.3a24.28,24.28,0,0,0,4.22.95l1.78-1.94c.48,0,1,.07,1.46.08h.51l1.45,2.07a26.23,26.23,0,0,0,4.34-.61l.14-2.31c.61-.18,1.2-.38,1.77-.61l2.75,1.29a18.06,18.06,0,0,0,3.31-2l-1.54-2a10.51,10.51,0,0,0,1.08-1.14l3.33.17a10.15,10.15,0,0,0,1.38-2.9l-2.81-1.23A6.93,6.93,0,0,0,298.94,53.64Zm-15.41,8.63c-7.14,0-12.93-4-12.93-8.92s5.79-8.91,12.93-8.91,12.92,4,12.92,8.91S290.67,62.27,283.53,62.27Z"/><ellipse class="cls-2" cx="283.53" cy="53.36" rx="9.46" ry="6.52"/><path class="cls-3" d="M33.38,40.73q4.34,0,5.56,2.58l.16,1v.24q0,1.73-3.06,6.69Q27,67,26.69,67.34H19.27l3.63-6.61H11.45c-.22.21-1.48,2.42-3.79,6.61l-.08.08H0v-.08q11-19.46,12.09-21Q15.18,43,17,42.27a11.85,11.85,0,0,1,4.84-1.46Zm-10.73.08H33.86c2.59,0,4.29,1,5.08,2.91l.08.64q0,1.88-3.87,8.06-3.82,6.9-8.55,14.84l-.32.08H19.43l-.16-.16L22.82,61v-.24H11.29Q11,61,7.5,67.34l-.41.08H.16l-.08-.08H0q11-19.4,11.93-20.72Q16.73,40.82,22.65,40.81ZM15,54.28H25.15c1.13,0,1.7-.19,1.7-.57q2.58-3.78,2.58-4.59v-.65q-.45-1-2.34-1h-4.6Q17.89,47.51,15,54.28Zm.16-.08H26.6c1.94-3,2.91-4.71,2.91-5.08V48.8c0-.86-.92-1.29-2.74-1.29H23c-3,0-5.27,1.64-6.86,4.91A8.14,8.14,0,0,0,15.16,54.2Z"/><path class="cls-4" d="M51.86,40.81V41L40.49,60.65H63.55v.16L52,67.42H29.2q0-.24,7.26-12.9l7.82-13.63.08-.08Z"/><path class="cls-5" d="M72.6,41h7.25l.08.08H80q-9.76,17.27-10.15,18.3l-.08.24c0,.64.53,1,1.61,1h7.74L90.41,41h7.42l.08.08H98L86.79,60.49v.16H96.86q.27-.27,11.21-19.51l.65-.16h6.77l.08.08h.08l-15,26.36H65q-3.39,0-4.43-2.34l-.17-1q0-1.9,3.87-8.38Q72.06,41.6,72.6,41Z"/><path class="cls-6" d="M118.51,40.89h7.42l.16.17-15,26.36h-7.41Q104.46,65.66,118.51,40.89Z"/><path class="cls-7" d="M146.89,40.81q4.13,0,5.4,2.1a2.68,2.68,0,0,1,.32,1.29v.16c0,1.26-1.05,3.55-3.14,6.85q-7.74,13.95-9.19,16.21h-7.5v-.08l9.67-17.09a3.14,3.14,0,0,0,.41-1.45v-.25c0-.69-.51-1-1.53-1h-8.79Q121.4,67.19,121.09,67.42h-7.34q0-.24,7.5-13.3l7.66-13.31Z"/><path class="cls-8" d="M203.67,41q3.59,0,4.59,2.33l.16,1q0,1.95-3.87,8.3-5.4,10-8.22,14.76h-5l-2.42.08-.08-.08Q199,49.42,199,49l.08-.24c0-.65-.54-1-1.61-1h-7.74Q178.79,67,178.43,67.34h-7.5q.15-.54,7.42-13l3.79-6.61H172q-.24.14-8.79,15.32a43.58,43.58,0,0,1-2.58,4.27l-6.77.08h-.48l-.08-.08h-.08l15-26.36Z"/><path class="cls-9" d="M221.4,40.73h10q4.66,0,5.48,2.91l.08.56v.16q0,1.8-3,6.69-5.61,10-6.37,11.05-4.32,5.24-10.32,5.24l-11.77.08q-3.45,0-4.6-2.18a2,2,0,0,1-.24-1v-.32q0-1.93,3.23-7Q209,48,210.11,46.38A13.92,13.92,0,0,1,221.4,40.73ZM210.6,59.2c0,.68.45,1.16,1.37,1.45h5.88c2.44,0,4.58-2,6.45-6.13q2.82-4.46,2.82-5.64c0-.92-.86-1.37-2.58-1.37h-3.38q-5.06,0-7.74,6Q210.6,58,210.6,59.2Z"/><path class="cls-10" d="M264.23,40.65l7,.08v.16l-11,6.7h-7.1Q242,67.42,241.82,67.42h-7.5v-.08l11.37-19.83H234.88v-.17L246,40.65Z"/><path class="cls-11" d="M312.23,40.73h18.55q3.87,0,5.08,2.66a2.89,2.89,0,0,1,.16,1q0,1.76-3.15,6.94Q330.47,56.13,328,57l-2.17.4v.08c1.3,0,2.05.46,2.26,1.37l.08.25c0,.56-1,2.57-3.07,6a12.76,12.76,0,0,1-1.37,2.26h-7.5v-.16l3.63-6.53H308.36a69.75,69.75,0,0,1-3.86,6.69h-7.26l-.08-.08h-.08Q311.59,41.61,312.23,40.73Zm0,13.31v.08H320q4.26,0,5.49-3.15a5.41,5.41,0,0,0,.88-2.42c0-.75-.86-1.12-2.58-1.12H316.1Z"/><path class="cls-12" d="M118.54,24.43c-17.43,11.52-40.19-.92-50.92-20C82.83,19.42,105.3,26.46,118.54,24.43Z"/><path class="cls-13" d="M196.61,27.81c4.78-4.78,18-2.22,24.55,0C209.55,36.55,195.93,33.29,196.61,27.81Z"/><path class="cls-14" d="M190,3.16c-15.39-3-24.22-1.09-37,2.76h0c-22.14,4-33.81,17-33.81,17-11.2,0-25.25-5-29.64-10.63C94,15.81,139.54,2.42,159.63.72,171-.25,178.35-.85,190,3.16Z"/><path class="cls-15" d="M291.54,30.82q.85.3,1.53.6c2.29,1,1.52,1,10.36,2.9a72.29,72.29,0,0,0,9.59,1,63.52,63.52,0,0,0,11.52-1s-28.58-10.5-70.28-12c-8.26-.31-17-.26-26.2.29C210.34,12.05,198.89,6.24,190,3.16c-11.61-4-19-3.41-30.33-2.44C139.54,2.42,94,15.81,89.49,12.28c4.39,5.64,18.44,10.63,29.64,10.63,0,0,11.67-12.95,33.81-17h0a72.39,72.39,0,0,1,10.42-1.14c28.15-1.06,52.35,14,63.72,21.78,14.47-2.71,52.06,0,64.37,4.24Z"/><path class="cls-16" d="M190.49,27.77c-16.9,7.49-36,1.47-50.93-2.51h0c-7.73-2.05-14.34-3.57-19-2.39.29-.19,7.14-4.4,23.11-.56,7.27,1.74,14.59,3.24,21.7,4.26A114.38,114.38,0,0,0,190.49,27.77Z"/></svg>